Coordinates
version=1
nRows=4
nColumns=63
inDegrees=yes

Units are S.I. units (second, meters, Newtons, ...)
If the header above contains a line with 'inDegrees', this indicates whether rotational values are in degrees (yes) or radians (no).

endheader
time	pelvis_tilt	pelvis_list	pelvis_rotation	pelvis_tx	pelvis_ty	pelvis_tz	hip_flexion_r	hip_adduction_r	hip_rotation_r	knee_angle_r	knee_angle_r_beta	ankle_angle_r	subtalar_angle_r	mtp_angle_r	hip_flexion_l	hip_adduction_l	hip_rotation_l	knee_angle_l	knee_angle_l_beta	ankle_angle_l	subtalar_angle_l	mtp_angle_l	L5_S1_Flex_Ext	L5_S1_Lat_Bending	L5_S1_axial_rotation	L4_L5_Flex_Ext	L4_L5_Lat_Bending	L4_L5_axial_rotation	L3_L4_Flex_Ext	L3_L4_Lat_Bending	L3_L4_axial_rotation	L2_L3_Flex_Ext	L2_L3_Lat_Bending	L2_L3_axial_rotation	L1_L2_Flex_Ext	L1_L2_Lat_Bending	L1_L2_axial_rotation	L1_T12_Flex_Ext	L1_T12_Lat_Bending	L1_T12_axial_rotation	Abs_r3	Abs_r2	Abs_r1	Abs_t1	Abs_t2	neck_flexion	neck_bending	neck_rotation	arm_flex_r	arm_add_r	arm_rot_r	elbow_flex_r	pro_sup_r	wrist_flex_r	wrist_dev_r	arm_flex_l	arm_add_l	arm_rot_l	elbow_flex_l	pro_sup_l	wrist_flex_l	wrist_dev_l
      2.74576271	     -3.33896067	     -0.40631266	     99.97605277	      0.25325378	      0.74550119	      0.80591910	     -9.16178128	      1.68955124	    -40.04278187	      2.88802334	      0.05040552	      4.91642246	     15.04592639	      0.00000000	     -7.66344723	     -1.85666096	     14.56017829	      0.37890394	      0.00661312	     25.47880179	     -2.55083162	      0.00000000	      0.18115978	      1.11797947	     -0.16666005	      0.33643182	      1.48691269	     -0.17707630	      0.29762740	      2.71825528	     -0.17707630	      0.20704751	      2.71825528	     -0.14582754	      0.16822497	      2.27978373	     -0.13541129	      0.10351470	      1.73175020	     -0.12499504	      1.29400616	     12.64680733	     -0.92691318	      0.00000000	      0.00000000	     26.35330580	     -3.60139089	     28.93570341	     17.63261638	    -16.63123540	    159.19589932	     13.61131940	      5.60019142	     -7.25309085	     -6.81487365	     54.42933832	    -10.44801058	     -0.57843460	    139.85824659	     88.76336258	    -17.74070903	      7.66221668
      2.76271186	     -3.23601502	     -0.66835637	    100.43826904	      0.25330265	      0.74483038	      0.80571964	     -9.18556402	      2.23228304	    -36.24342367	      1.92597081	      0.03361453	      5.70243127	     10.82448168	      0.00000000	     -7.33983673	     -2.02433792	     15.27507105	      0.38995468	      0.00680599	     25.36554106	     -2.90205688	      0.00000000	      0.20921300	      1.10265318	     -0.29327404	      0.38852946	      1.46652873	     -0.31160367	      0.34371604	      2.68099094	     -0.31160367	      0.23910954	      2.68099094	     -0.25661479	      0.19427519	      2.24853036	     -0.23828516	      0.11954431	      1.70800977	     -0.21995553	      1.49438753	     12.47343327	     -1.63110225	      0.00000000	      0.00000000	     26.66076347	     -2.79344887	     29.19137552	     17.65814953	    -16.48090491	    158.18235320	     13.66091080	      5.57749969	     -7.03430111	     -6.74023365	     53.17724106	    -10.99398088	     -0.93309753	    139.33085229	     88.71034462	    -17.96711082	      5.97434511
      2.77966102	     -3.19121926	     -1.06737525	    101.03021650	      0.25321347	      0.74397068	      0.80586780	     -8.89177189	      2.44234850	    -35.92756984	      1.61902677	      0.02825735	      6.18013310	      9.89077928	      0.00000000	     -6.84992031	     -2.11147926	     15.30991113	      0.41440058	      0.00723265	     25.36293150	     -2.18523301	      0.00000000	      0.24752620	      1.08049210	     -0.45046568	      0.45968091	      1.43705449	     -0.47861978	      0.40666080	      2.62710849	     -0.47861978	      0.28289770	      2.62710849	     -0.39415747	      0.22985283	      2.20333949	     -0.36600336	      0.14143647	      1.67368226	     -0.33784926	      1.76805490	     12.22274272	     -2.50535496	      0.00000000	      0.00000000	     26.93777905	     -2.07421997	     29.58487041	     17.71186762	    -16.22856074	    157.58561964	     13.50026992	      5.97182215	     -7.03828431	     -6.83720547	     51.53535689	    -11.74216618	     -1.68333877	    138.58783744	     88.75387728	    -17.13171381	      3.61295081
      2.79661017	     -3.08099834	     -1.50534401	    101.51801167	      0.25336458	      0.74308725	      0.80637573	     -8.49332301	      2.66134709	    -35.98335741	      1.42852884	      0.02493253	      5.82970003	      8.84047888	      0.00000000	     -6.28839144	     -2.23540731	     15.19870110	      0.44766056	      0.00781315	     25.31897455	     -1.47623769	      0.00000000	      0.28187575	      1.06691137	     -0.58229014	      0.52347145	      1.41899212	     -0.61868328	      0.46309367	      2.59408830	     -0.61868328	      0.32215579	      2.59408830	     -0.50950387	      0.26174982	      2.17564566	     -0.47311074	      0.16106380	      1.65264571	     -0.43671761	      2.01341029	     12.06911476	     -3.23852308	      0.00000000	      0.00000000	     27.24880133	     -1.69289973	     29.56252071	     17.89332192	    -15.89293044	    157.63931842	     13.17368873	      7.29571672	     -7.42928482	     -6.90991344	     49.52967833	    -12.53861254	     -2.41303314	    137.49120156	     88.84725196	    -15.96805731	      0.21152262
